<svg width="400" height="160" viewBox="0 0 400 160" xmlns="http://www.w3.org/2000/svg" role="img" aria-label="{ V V }; — Vishal Vishwakarma logo, light version for dark backgrounds">
  <title>{ V V }; — Vishal Vishwakarma (Light)</title>
  <g fill="none" stroke="#FFFFFF" stroke-width="13" stroke-linecap="round" stroke-linejoin="round">
    <path d="M 58,20 C 40,20 40,20 40,45 C 40,58 40,62 26,68 C 40,74 40,78 40,91 C 40,116 40,116 58,116"/>
    <path d="M 92,26 L 122,112 L 152,26"/>
    <path d="M 186,26 L 216,112 L 246,26"/>
    <path d="M 282,20 C 300,20 300,20 300,45 C 300,58 300,62 314,68 C 300,74 300,78 300,91 C 300,116 300,116 282,116"/>
  </g>
  <circle cx="340" cy="52" r="8.5" fill="#FFFFFF"/>
  <path d="M 344,72 L 328,110" fill="none" stroke="#FFFFFF" stroke-width="13" stroke-linecap="round"/>
</svg>
